<?xml version="1.0" encoding="utf-8"?>
<!-- Generator: Adobe Illustrator 22.1.0, SVG Export Plug-In . SVG Version: 6.00 Build 0)  -->
<svg version="1.1" id="logo" xmlns="http://www.w3.org/2000/svg" xmlns:xlink="http://www.w3.org/1999/xlink" x="0px" y="0px"
	 width="1006.9px" height="465.4px" viewBox="0 0 1006.9 465.4" style="enable-background:new 0 0 1006.9 465.4;"
	 xml:space="preserve">
<style type="text/css">
	.st0{fill:#FFFFFF;}
	.st1{fill:#F6D215;}
</style>
<g id="station">
	<path class="st0" d="M400.3,336.7l29.9,31.4c13,13,19,24.8,19,55c0,27.3-9.8,42.3-44.3,42.3c-34.5,0-44-15-44-42.3v-27.3
		c0-4,2-6.3,6-6.3h11.8c4,0,6,2.3,6,6.3v27.3c0,13.8,3.7,22.2,20.2,22.2c16.4,0,20.4-8.3,20.4-22.2c0-18.4-2.3-26.2-15.5-40.3
		l-29.9-31.4c-13-12.7-19-24.8-19-55c0-27.3,9.5-42.3,44-42.3c34.5,0,44.3,15,44.3,42.3v27.3c0,4-2,6-6,6h-11.8c-4,0-6-2-6-6v-27.3
		c0-13.8-4-22.2-20.4-22.2c-16.4,0-20.2,8.3-20.2,22.2C384.8,315.1,387.1,322.9,400.3,336.7z"/>
	<path class="st0" d="M523.5,275.7v181.9c0,4-2.3,6.3-6.3,6.3h-11.5c-4,0-6.3-2.3-6.3-6.3V275.7h-32.8c-4,0-6.3-2.3-6.3-6.3v-7.8
		c0-4,2.3-6,6.3-6h89.8c4,0,6.3,2,6.3,6v7.8c0,4-2.3,6.3-6.3,6.3H523.5z"/>
	<path class="st0" d="M627.2,458.2l-6-39.4h-40l-5.8,39.4c-0.6,3.7-2.9,5.8-6.3,5.8h-12.1c-4,0-6-3.2-5.5-7.2l29.9-194.9
		c0.6-4.3,2.9-6.3,6.9-6.3h25.9c4,0,6,2,6.6,6.3l29.9,194.9c0.6,4.3-1.4,7.2-5.5,7.2h-12.1C630,464,627.5,461.9,627.2,458.2z
		 M583.7,398.6h34.5l-9.8-67.1l-6.6-55.8h-1.4l-6.6,55.8L583.7,398.6z"/>
	<path class="st0" d="M702.9,275.7v181.9c0,4-2.3,6.3-6.3,6.3H685c-4,0-6.3-2.3-6.3-6.3V275.7h-32.8c-4,0-6.3-2.3-6.3-6.3v-7.8
		c0-4,2.3-6,6.3-6h89.8c4,0,6.3,2,6.3,6v7.8c0,4-2.3,6.3-6.3,6.3H702.9z"/>
	<path class="st0" d="M777.7,457.6c0,4-2.3,6.3-6.3,6.3h-11.5c-4,0-6.3-2.3-6.3-6.3V261.6c0-4,2.3-6,6.3-6h11.5c4,0,6.3,2,6.3,6
		V457.6z"/>
	<path class="st0" d="M889.4,296.4v126.7c0,27.3-9.8,42.3-44.3,42.3c-34.5,0-44.3-15-44.3-42.3V296.4c0-27.3,9.8-42.3,44.3-42.3
		C879.6,254.1,889.4,269.1,889.4,296.4z M824.9,296.4v126.7c0,13.8,3.7,22.2,20.2,22.2c16.4,0,20.2-8.3,20.2-22.2V296.4
		c0-13.8-3.7-22.2-20.2-22.2C828.7,274.2,824.9,282.6,824.9,296.4z"/>
	<path class="st0" d="M978.4,261.6c0-4,2.3-6,6.3-6h10.9c4,0,6,2,6,6v196.1c0,4-2,6.3-6,6.3h-15.3c-4,0-5.5-1.7-6.6-5.5l-28.8-108
		l-10.1-42.3l-1.4,0.3l2.3,43.5v105.7c0,4-2,6.3-6,6.3h-10.9c-4,0-6.3-2.3-6.3-6.3V261.6c0-4,2.3-6,6.3-6h15c4,0,5.8,1.7,6.6,5.5
		l28.8,108l10.1,42.3l1.4-0.3l-2.3-43.5V261.6z"/>
</g>
<g id="topper">
	<path class="st0" d="M419.9,54.5v157.2c0,5.9-3.5,9.3-9.3,9.3h-15.2c-5.9,0-9.3-3.5-9.3-9.3V54.5h-26.9c-5.9,0-9.3-3.5-9.3-9.3
		v-7.7c0-5.9,3.5-9,9.3-9h87.5c5.9,0,9.3,3.2,9.3,9v7.7c0,5.9-3.5,9.3-9.3,9.3H419.9z"/>
	<path class="st0" d="M564.3,68.3v112.8c0,27.7-15.4,41.2-48.9,41.2s-48.7-13.6-48.7-41.2V68.3c0-27.7,15.2-41.2,48.7-41.2
		S564.3,40.7,564.3,68.3z M500.5,68.3v112.8c0,9,4,15.2,14.9,15.2s15.2-6.1,15.2-15.2V68.3c0-9-4.3-15.2-15.2-15.2
		S500.5,59.3,500.5,68.3z"/>
	<path class="st0" d="M619.4,150.8v60.9c0,5.9-3.5,9.3-9.3,9.3h-15.2c-5.9,0-9.3-3.5-9.3-9.3V37.5c0-5.9,3.5-9,9.3-9h35.6
		c34.6,0,50,13.8,50,42.3v37.5c0,28.7-15.4,42.6-50,42.6H619.4z M630.6,124.7c12,0,16.2-6.6,16.2-16.5V70.7
		c0-9.6-4.3-16.2-16.2-16.2h-11.2v70.2H630.6z"/>
	<path class="st0" d="M730.3,150.8v60.9c0,5.9-3.5,9.3-9.3,9.3h-15.2c-5.9,0-9.3-3.5-9.3-9.3V37.5c0-5.9,3.5-9,9.3-9h35.6
		c34.6,0,50,13.8,50,42.3v37.5c0,28.7-15.4,42.6-50,42.6H730.3z M741.5,124.7c12,0,16.2-6.6,16.2-16.5V70.7
		c0-9.6-4.3-16.2-16.2-16.2h-11.2v70.2H741.5z"/>
	<path class="st0" d="M881.4,28.4c5.9,0,9.3,3.2,9.3,9v7.7c0,5.9-3.5,9.3-9.3,9.3h-40.2v57.2h30.1c5.9,0,9.3,3.2,9.3,9v7.7
		c0,5.9-3.5,9.3-9.3,9.3h-30.1v57.2h40.2c5.9,0,9.3,3.2,9.3,9v7.7c0,5.9-3.5,9.3-9.3,9.3h-64.6c-5.9,0-9.3-3.5-9.3-9.3V37.5
		c0-5.9,3.5-9,9.3-9H881.4z"/>
	<path class="st0" d="M979.8,138.3l26.3,69.7c1.9,4.8,0.5,13-8.2,13h-16.2c-4.8,0-7.7-2.1-9-6.1l-26.1-71.3h-8.8v68.1
		c0,5.9-3.5,9.3-9.3,9.3h-15.2c-5.9,0-9.3-3.5-9.3-9.3V37.5c0-5.9,3.5-9,9.3-9h37.8c34.3,0,49.7,13.8,49.7,42.3V101
		C1000.9,119.9,994.7,132.4,979.8,138.3z M951.1,117.5c11.7,0,16.2-6.6,16.2-16.5V70.7c0-9.6-4.5-16.2-16.2-16.2h-13.3v63H951.1z"/>
</g>
<g id="wlu-mark">
	<path class="st0" d="M162.6,0C72.8,0,0,72.8,0,162.6s72.8,162.6,162.6,162.6s162.6-72.8,162.6-162.6S252.4,0,162.6,0z M162.6,266.8
		c-57.6,0-104.2-46.7-104.2-104.2S105,58.4,162.6,58.4S266.8,105,266.8,162.6S220.2,266.8,162.6,266.8z"/>
	<polygon class="st1" points="162.6,373.8 81.9,327 162.6,462.2 243.3,327 	"/>
	<path class="st0" d="M101.8,117.6H128c8.9,0.5,4.9,34,4.9,34s5.7-18.3,12.4-33.9h18.2v31.2c2.9-9.3,11.4-30.6,12.1-31.3h5.2
		c0,0,19.6-0.1,9.6,23.2c-4.3,11-10,26-17.3,50.3c0,0-11.2-0.3-25.5,1.1c-0.8-5.5-2.2-27.4-2.2-27.4s-8.5,20.9-9.8,28.8
		c-14.7,1.5-31.1,5.6-31.1,5.6s4.7-20.7,6.4-46.9C111.9,134.4,111,118.8,101.8,117.6z"/>
	<path class="st1" d="M189.3,117.6l37.4,0.1c0,0-12.3,21.4-24,60.7l35.8,0c0,0-4.4,6.6-6.4,22.3c0,0-19.6-9.2-56-9.6
		c6.4-21.4,14.9-44.3,18.8-53.8C198.6,127.7,196.3,119.3,189.3,117.6z"/>
	<path class="st1" d="M88.1,207.6c0,0,81.4-29.4,148.9-2.2C237,205.5,175.4,184.6,88.1,207.6z"/>
</g>
</svg>
