<?xml version="1.0" encoding="utf-8"?>
<!-- Generator: Adobe Illustrator 22.1.0, SVG Export Plug-In . SVG Version: 6.00 Build 0)  -->
<svg version="1.1" id="Layer_1" xmlns="http://www.w3.org/2000/svg" xmlns:xlink="http://www.w3.org/1999/xlink" x="0px" y="0px"
	 width="1006.9px" height="152.3px" viewBox="0 0 1006.9 152.3" style="enable-background:new 0 0 1006.9 152.3;"
	 xml:space="preserve">
<style type="text/css">
	.st0{fill:#F6D215;}
</style>
<g id="station">
	<path d="M622.8,61.4l19.1,20.1c8.3,8.3,12.1,15.8,12.1,35.1c0,17.4-6.3,27-28.3,27s-28.1-9.6-28.1-27V99.2c0-2.6,1.3-4,3.8-4h7.5
		c2.6,0,3.8,1.5,3.8,4v17.4c0,8.8,2.4,14.2,12.9,14.2c10.5,0,13-5.3,13-14.2c0-11.8-1.5-16.7-9.9-25.7l-19.1-20.1
		c-8.3-8.1-12.1-15.8-12.1-35.1c0-17.4,6.1-27,28.1-27s28.3,9.6,28.3,27v17.4c0,2.6-1.3,3.8-3.8,3.8h-7.5c-2.6,0-3.8-1.3-3.8-3.8
		V35.7c0-8.8-2.6-14.2-13-14.2c-10.5,0-12.9,5.3-12.9,14.2C612.9,47.6,614.3,52.6,622.8,61.4z"/>
	<path d="M701.5,22.5v116.2c0,2.6-1.5,4-4,4h-7.3c-2.6,0-4-1.5-4-4V22.5h-21c-2.6,0-4-1.5-4-4v-5c0-2.6,1.5-3.8,4-3.8h57.4
		c2.6,0,4,1.3,4,3.8v5c0,2.6-1.5,4-4,4H701.5z"/>
	<path d="M767.7,139l-3.8-25.2h-25.6l-3.7,25.2c-0.4,2.4-1.9,3.7-4,3.7h-7.7c-2.6,0-3.8-2-3.5-4.6l19.1-124.5c0.4-2.7,1.9-4,4.4-4
		h16.5c2.6,0,3.8,1.3,4.2,4l19.1,124.5c0.4,2.7-0.9,4.6-3.5,4.6h-7.7C769.5,142.7,767.9,141.4,767.7,139z M739.9,101h22l-6.3-42.9
		l-4.2-35.6h-0.9l-4.2,35.6L739.9,101z"/>
	<path d="M816.1,22.5v116.2c0,2.6-1.5,4-4,4h-7.4c-2.6,0-4-1.5-4-4V22.5h-21c-2.6,0-4-1.5-4-4v-5c0-2.6,1.5-3.8,4-3.8H837
		c2.6,0,4,1.3,4,3.8v5c0,2.6-1.5,4-4,4H816.1z"/>
	<path d="M863.9,138.7c0,2.6-1.5,4-4,4h-7.3c-2.6,0-4-1.5-4-4V13.4c0-2.6,1.5-3.8,4-3.8h7.3c2.6,0,4,1.3,4,3.8V138.7z"/>
	<path d="M935.2,35.7v80.9c0,17.4-6.3,27-28.3,27s-28.3-9.6-28.3-27V35.7c0-17.4,6.3-27,28.3-27C929,8.7,935.2,18.2,935.2,35.7z
		 M894,35.7v80.9c0,8.8,2.4,14.2,12.9,14.2c10.5,0,12.9-5.3,12.9-14.2V35.7c0-8.8-2.4-14.2-12.9-14.2C896.4,21.5,894,26.9,894,35.7z
		"/>
	<path d="M992.1,13.4c0-2.6,1.5-3.8,4-3.8h7c2.6,0,3.8,1.3,3.8,3.8v125.3c0,2.6-1.3,4-3.8,4h-9.8c-2.6,0-3.5-1.1-4.2-3.5l-18.4-69
		l-6.5-27l-0.9,0.2l1.5,27.8v67.5c0,2.6-1.3,4-3.8,4h-7c-2.6,0-4-1.5-4-4V13.4c0-2.6,1.5-3.8,4-3.8h9.6c2.6,0,3.7,1.1,4.2,3.5
		l18.4,69l6.5,27l0.9-0.2l-1.5-27.8V13.4z"/>
</g>
<g id="topper">
	<path d="M171.1,27.6v108.7c0,4.1-2.4,6.4-6.4,6.4h-10.5c-4.1,0-6.4-2.4-6.4-6.4V27.6h-18.6c-4.1,0-6.4-2.4-6.4-6.4v-5.3
		c0-4.1,2.4-6.2,6.4-6.2h60.5c4.1,0,6.4,2.2,6.4,6.2v5.3c0,4.1-2.4,6.4-6.4,6.4H171.1z"/>
	<path d="M270.9,37.1v78c0,19.2-10.6,28.5-33.8,28.5s-33.7-9.4-33.7-28.5v-78c0-19.2,10.5-28.5,33.7-28.5S270.9,18.1,270.9,37.1z
		 M226.8,37.1v78c0,6.2,2.8,10.5,10.3,10.5s10.5-4.2,10.5-10.5v-78c0-6.2-3-10.5-10.5-10.5S226.8,30.9,226.8,37.1z"/>
	<path d="M309,94.2v42.1c0,4.1-2.4,6.4-6.4,6.4h-10.5c-4.1,0-6.4-2.4-6.4-6.4V15.8c0-4.1,2.4-6.2,6.4-6.2h24.6
		c23.9,0,34.6,9.5,34.6,29.3v25.9c0,19.8-10.6,29.5-34.6,29.5L309,94.2L309,94.2z M316.8,76.1c8.3,0,11.2-4.6,11.2-11.4V38.8
		c0-6.6-3-11.2-11.2-11.2H309v48.5H316.8z"/>
	<path d="M385.7,94.2v42.1c0,4.1-2.4,6.4-6.4,6.4h-10.5c-4.1,0-6.4-2.4-6.4-6.4V15.8c0-4.1,2.4-6.2,6.4-6.2h24.6
		c23.9,0,34.6,9.5,34.6,29.3v25.9c0,19.8-10.6,29.5-34.6,29.5L385.7,94.2L385.7,94.2z M393.5,76.1c8.3,0,11.2-4.6,11.2-11.4V38.8
		c0-6.6-3-11.2-11.2-11.2h-7.7v48.5H393.5z"/>
	<path d="M490.2,9.6c4.1,0,6.4,2.2,6.4,6.2v5.3c0,4.1-2.4,6.4-6.4,6.4h-27.8v39.6h20.8c4.1,0,6.4,2.2,6.4,6.2v5.3
		c0,4.1-2.4,6.4-6.4,6.4h-20.8v39.6h27.8c4.1,0,6.4,2.2,6.4,6.2v5.3c0,4.1-2.4,6.4-6.4,6.4h-44.7c-4.1,0-6.4-2.4-6.4-6.4V15.8
		c0-4.1,2.4-6.2,6.4-6.2L490.2,9.6L490.2,9.6z"/>
	<path d="M558.3,85.5l18.2,48.2c1.3,3.3,0.3,9-5.7,9h-11.2c-3.3,0-5.3-1.5-6.2-4.2l-18-49.3h-6.1v47.1c0,4.1-2.4,6.4-6.4,6.4h-10.5
		c-4.1,0-6.4-2.4-6.4-6.4V15.8c0-4.1,2.4-6.2,6.4-6.2h26.1c23.7,0,34.4,9.5,34.4,29.3v20.9C572.8,72.8,568.6,81.5,558.3,85.5z
		 M538.4,71.2c8.1,0,11.2-4.6,11.2-11.4v-21c0-6.6-3.1-11.2-11.2-11.2h-9.2v43.6H538.4z"/>
</g>
<g id="wlu-mark">
	<path d="M53.6,0C24,0,0,24,0,53.6s24,53.6,53.6,53.6s53.6-24,53.6-53.6S83.2,0,53.6,0z M53.6,87.9c-19,0-34.3-15.4-34.3-34.3
		s15.4-34.3,34.3-34.3s34.3,15.4,34.3,34.3S72.6,87.9,53.6,87.9z"/>
	<polygon class="st0" points="53.6,123.2 27,107.7 53.6,152.3 80.2,107.7 	"/>
	<path d="M33.5,38.7h8.6c2.9,0.2,1.6,11.2,1.6,11.2s1.9-6,4.1-11.2h6v10.3c1-3.1,3.8-10.1,4-10.3h1.7c0,0,6.5,0,3.2,7.6
		C61.3,50,59.4,55,57,63c0,0-3.7-0.1-8.4,0.4c-0.3-1.8-0.7-9-0.7-9s-2.8,6.9-3.2,9.5c-4.8,0.5-10.2,1.8-10.2,1.8s1.5-6.8,2.1-15.5
		C36.9,44.3,36.6,39.1,33.5,38.7z"/>
	<path class="st0" d="M62.4,38.7l12.3,0c0,0-4.1,7.1-7.9,20h11.8c0,0-1.4,2.2-2.1,7.3c0,0-6.5-3-18.5-3.2c2.1-7.1,4.9-14.6,6.2-17.7
		C65.4,42.1,64.7,39.3,62.4,38.7z"/>
	<path class="st0" d="M29,68.4c0,0,26.8-9.7,49.1-0.7C78.1,67.7,57.8,60.8,29,68.4z"/>
</g>
</svg>
