<svg version="1.1" class="icon--behance" xmlns="http://www.w3.org/2000/svg" xmlns:xlink="http://www.w3.org/1999/xlink" x="0px" y="0px"
	 width="18px" height="18px" viewBox="0 0 18 18" style="enable-background:new 0 0 18 18;" xml:space="preserve">
<title>Behance</title>
<g id="surface1">
	<path d="M2,0C0.9,0,0,0.9,0,2v14c0,1.1,0.9,2,2,2h14c1.1,0,2-0.9,2-2V2c0-1.1-0.9-2-2-2H2z M3.4,4.7H6c2.3,0,2.7,1.4,2.7,2.3
		c0,1.3-0.9,1.7-1.1,1.8c0.2,0.1,1.2,0.4,1.2,1.9c0.1,1.8-1,2.5-2.6,2.5H3.4V4.7z M10.4,4.7h3.7v1h-3.7V4.7z M5.1,6.1v2.1H6
		c0.6,0,1-0.2,1-1c0-0.7-0.3-1.1-1-1.1H5.1z M12.6,6.8C14,6.8,15,7.6,15,9.9v0.7h-3.4c0,0.3,0,1.4,1.2,1.4c0.8,0,1.2-0.4,1.4-0.6
		l0.7,1c-0.1,0.1-0.8,0.9-2.1,0.9c-1.5,0-2.7-0.8-2.7-2.9V9.9C10.1,7.6,11.3,6.8,12.6,6.8z M12.4,8.1c-0.3,0-0.9,0.1-0.9,1.3h1.7
		C13.2,9.4,13.4,8.1,12.4,8.1z M5.1,9.5v2.3h1.1c0.6,0,0.9-0.4,0.9-1.1c0.1-0.8-0.2-1.2-0.8-1.2H5.1z"/>
</g>
</svg>
