<?xml version="1.0" encoding="utf-8"?>
<!-- Generator: Adobe Illustrator 22.1.0, SVG Export Plug-In . SVG Version: 6.00 Build 0)  -->
<svg version="1.1" id="Layer_1" xmlns="http://www.w3.org/2000/svg" xmlns:xlink="http://www.w3.org/1999/xlink" x="0px" y="0px"
	 width="19px" height="18px" viewBox="0 0 19 18" style="enable-background:new 0 0 19 18;" xml:space="preserve">
<style type="text/css">
	.st0{fill:#FFFFFF;}
</style>
<polygon class="st0" points="9,7 9,8 7,8 7,10 9,10 9,14 11,14 11,7 "/>
<g>
	<path class="st0" d="M4.5,0C4.2,0,4,0.2,4,0.5v2C4,2.8,4.2,3,4.5,3h1C5.8,3,6,2.8,6,2.5v-2C6,0.2,5.8,0,5.5,0H4.5z"/>
</g>
<g>
	<path class="st0" d="M13.5,0C13.2,0,13,0.2,13,0.5v2C13,2.8,13.2,3,13.5,3h1C14.8,3,15,2.8,15,2.5v-2C15,0.2,14.8,0,14.5,0H13.5z"
		/>
	<g>
		<g>
			<path class="st0" d="M16,2v0.5C16,3.3,15.3,4,14.5,4h-1C12.7,4,12,3.3,12,2.5V2H7v0.5C7,3.3,6.3,4,5.5,4h-1C3.7,4,3,3.3,3,2.5V2
				C1.3,2,0,3.3,0,5v10c0,1.7,1.3,3,3,3h13c1.7,0,3-1.3,3-3V5C19,3.3,17.7,2,16,2z M17,5v10c0,0.6-0.5,1-1,1H3c-0.6,0-1-0.5-1-1V5v0
				L17,5L17,5z"/>
		</g>
	</g>
</g>
</svg>
