<svg version="1.1" class="icon--drupal" xmlns="http://www.w3.org/2000/svg" xmlns:xlink="http://www.w3.org/1999/xlink" x="0px" y="0px"
	 width="19px" height="22px" viewBox="0 0 19 22" style="enable-background:new 0 0 19 22;" xml:space="preserve">
<title>Drupal</title>
<g id="surface1">
	<path d="M11.4,3.6c-0.7-0.1-1.8-1.7-2.3-2.6L8.5,0L8.3,1.1C8.1,1.7,7.4,3.6,6.6,3.9C2.6,5.1,0,8.6,0,12.7C0,17.8,4.3,22,9.5,22
		s9.5-4.2,9.5-9.3C19,8.3,15.8,4.4,11.4,3.6z M13.9,19.1c-0.1,0.1-1,0.7-2.1,0.8c-1,0.1-2.5,0.2-3.4-0.6c-0.1-0.2-0.1-0.4,0-0.4
		c0.1-0.1,0.2-0.1,0.3-0.1c0.1,0,0.1,0,0.2,0.1c0.4,0.3,1,0.6,2.3,0.6s2.1-0.4,2.6-0.7c0.2-0.1,0.3,0,0.3,0.1
		C14.1,18.9,14.1,18.9,13.9,19.1z M10.6,17.4c0.2-0.2,0.5-0.5,0.9-0.7c0.3-0.1,0.5-0.1,0.8-0.1s0.6,0,0.9,0.1s0.4,0.5,0.4,0.7
		c0.1,0.2,0,0.3-0.1,0.4c-0.1,0.1-0.1,0-0.3-0.2c-0.1-0.3-0.3-0.5-0.9-0.5c-0.7,0-0.9,0.3-1.3,0.5s-0.4,0.4-0.6,0.2
		C10.3,17.7,10.3,17.6,10.6,17.4z M15.9,16.9c-0.7,0-2.1-2.1-3.1-2.1C11.8,14.7,9.3,17,7.3,17c-1.2,0-1.6-0.1-2-0.4
		c-0.5-0.4-0.8-1-0.8-1.8c0-1.4,1.4-2.8,3.3-2.8c2.3,0,3.9,2.1,5.1,2.1c1,0,2.9-1.9,3.9-1.9c1,0,1.3,0.9,1.3,1.6
		c0,0.6-0.2,1.6-0.7,2.3C16.8,16.7,16.6,16.9,15.9,16.9z"/>
</g>
</svg>
