<?xml version="1.0" encoding="utf-8"?>
<!-- Generator: Adobe Illustrator 22.1.0, SVG Export Plug-In . SVG Version: 6.00 Build 0)  -->
<svg version="1.1" id="Layer_1" xmlns="http://www.w3.org/2000/svg" xmlns:xlink="http://www.w3.org/1999/xlink" x="0px" y="0px"
	 width="18px" height="18px" viewBox="0 0 18 18" style="enable-background:new 0 0 18 18;" xml:space="preserve">
<path d="M16,0H2C0.9,0,0,0.9,0,2v14c0,1.1,0.9,2,2,2h14c1.1,0,2-0.9,2-2V2C18,0.9,17.1,0,16,0z M14,6.5c0,0.1,0,0.2,0,0.3
	c0,3.3-2.5,7-7,7c-1.4,0-2.7-0.4-3.8-1.1c0.2,0,0.4,0,0.6,0c1.1,0,2.2-0.4,3.1-1c-1.1,0-2-0.8-2.3-1.7c0.2,0,0.3,0.1,0.4,0.1
	c0.3,0,0.4,0,0.7-0.1c-1.1-0.3-2-1.2-2-2.4C4.1,7.8,4.5,7.9,4.9,8C4.2,7.4,3.8,6.7,3.8,5.8c0-0.4,0.1-0.9,0.3-1.2
	c1.2,1.5,3,2.5,5.1,2.6c0-0.2-0.1-0.3-0.1-0.6c0-1.4,1.1-2.5,2.5-2.5c0.7,0,1.4,0.3,1.8,0.8c0.6-0.1,1.1-0.3,1.5-0.6
	c-0.2,0.6-0.6,1-1.1,1.4c0.5-0.1,0.9-0.2,1.5-0.4C14.9,5.7,14.5,6.2,14,6.5z"/>
</svg>
