<svg version="1.1" id="Layer_1" xmlns="http://www.w3.org/2000/svg" xmlns:xlink="http://www.w3.org/1999/xlink" x="0px" y="0px"
	 width="20px" height="20px" viewBox="0 0 20 20" style="enable-background:new 0 0 20 20;" xml:space="preserve">
	<title>Github</title>
<g id="surface1">
	<path d="M10,0C4.5,0,0,4.5,0,10s4.5,10,10,10s10-4.5,10-10S15.5,0,10,0z M10,2c4.4,0,8,3.6,8,8c0,0.5,0,0.9-0.1,1.4
		c-0.2-0.1-0.6-0.1-1-0.1c-0.3,0-0.7,0-1,0.1c0.1-0.3,0.2-0.7,0.2-1.1c0-1-0.5-1.9-1.2-2.6C15,6.9,15.2,5.5,14.7,5
		c-1.6,0-2.5,1.1-2.5,1.2c-0.5-0.1-1-0.2-1.5-0.2c-0.7,0-1.4,0.1-2,0.3l0.2-0.2c0,0-0.9-1.2-2.5-1.2C5.8,5.5,6,7,6.3,7.7
		C5.5,8.4,5,9.3,5,10.2c0,0.3,0.1,0.6,0.2,0.9c-0.3,0-1.3-0.1-1.7-0.1c-0.4,0-0.9,0.1-1.4,0.2C2,10.8,2,10.4,2,10C2,5.6,5.6,2,10,2z
		 M3.5,11.3c0.4,0,1.6,0.1,1.8,0.2c0,0.1,0,0.1,0.1,0.2c-0.4,0-1.3-0.1-1.8,0c-0.4,0-0.8,0.2-1.3,0.3c0-0.1-0.1-0.2-0.1-0.4
		C2.6,11.4,3.1,11.3,3.5,11.3z M16.8,11.5c0.4,0,0.8,0.1,1,0.1c0,0.1,0,0.1-0.1,0.2c-0.3-0.1-0.7-0.1-1.2-0.2c-0.2,0-0.6,0-0.9,0
		c0,0,0-0.1,0-0.1C16.1,11.5,16.5,11.5,16.8,11.5z M4.1,11.8c0.6,0,1.1,0,1.3,0.1c0.5,1,1.6,1.7,3.2,2c-0.4,0.2-0.8,0.5-1,0.9
		c-0.2,0-0.5,0-0.7,0c-0.7,0-1.1-0.6-1.5-1.2C5,13.1,4.5,13,4.3,13c-0.3,0-0.4,0.1-0.2,0.2c0.8,0.6,1,1.3,1.3,1.9
		C5.7,15.7,6.3,16,6.9,16H7c0,0.1,0,0.2,0,0.3v1.1c-2.3-0.9-4.1-2.9-4.7-5.3c0.4-0.1,0.9-0.2,1.2-0.3C3.7,11.8,3.9,11.8,4.1,11.8z
		 M16.6,11.9c0.4,0,0.8,0.1,1.1,0.2c-0.6,2.1-1.9,3.8-3.7,4.8v-0.6c0-0.9-0.7-1.9-1.6-2.5c1.6-0.3,2.6-1,3.2-1.9
		C15.9,11.9,16.4,11.9,16.6,11.9z M10.5,16c0.3,0,0.5,0.2,0.5,0.5v1.4c-0.3,0-0.7,0.1-1,0.1v-1.5C10,16.2,10.2,16,10.5,16z M8.5,17
		C8.8,17,9,17.2,9,17.5v0.4c-0.3,0-0.7-0.1-1-0.2v-0.3C8,17.2,8.2,17,8.5,17z M12.5,17c0.2,0,0.5,0.2,0.5,0.4
		c-0.3,0.1-0.7,0.3-1,0.3v-0.3C12,17.2,12.2,17,12.5,17z"/>
</g>
</svg>
