<?xml version="1.0" encoding="utf-8"?>
<!-- Generator: Adobe Illustrator 22.1.0, SVG Export Plug-In . SVG Version: 6.00 Build 0)  -->
<svg version="1.1" id="Layer_1" xmlns="http://www.w3.org/2000/svg" xmlns:xlink="http://www.w3.org/1999/xlink" x="0px" y="0px"
	 width="20px" height="17px" viewBox="0 0 20 17" style="enable-background:new 0 0 20 17;" xml:space="preserve">
<g id="surface1">
	<path d="M20,3.9c-0.1,1.9-1.4,4.5-4.1,7.8c-2.7,3.5-5,5.2-6.9,5.2c-1.2,0-2.2-1.1-3-3.2C5.5,11.9,5,9.9,4.4,8
		C3.8,5.9,3.2,4.8,2.5,4.8c-0.2,0-0.7,0.3-1.6,0.9L0,4.6C1,3.7,2,2.9,2.9,2c1.3-1.1,2.3-1.7,3-1.8c1.6-0.1,2.5,0.9,2.9,3.1
		c0.4,2.4,0.7,3.9,0.8,4.5c0.4,2,0.9,3,1.5,3c0.4,0,1-0.6,1.9-1.9c0.8-1.3,1.3-2.3,1.3-3c0.1-1.1-0.3-1.7-1.3-1.7
		c-0.5,0-1,0.1-1.5,0.3c1-3.2,2.9-4.7,5.6-4.6C19.1,0.1,20.1,1.4,20,3.9z"/>
</g>
</svg>
