<svg version="1.1" class="icon--instagram" xmlns="http://www.w3.org/2000/svg" xmlns:xlink="http://www.w3.org/1999/xlink" x="0px" y="0px"
	 width="18px" height="18px" viewBox="0 0 18 18" style="enable-background:new 0 0 18 18;" xml:space="preserve">
<path d="M5,0C2.2,0,0,2.2,0,5v8c0,2.8,2.2,5,5,5h8c2.8,0,5-2.2,5-5V5c0-2.8-2.2-5-5-5H5z M15,2c0.6,0,1,0.4,1,1s-0.4,1-1,1
	s-1-0.4-1-1S14.4,2,15,2z M9,4c2.8,0,5,2.2,5,5s-2.2,5-5,5s-5-2.2-5-5S6.2,4,9,4z M9,6C7.3,6,6,7.3,6,9s1.3,3,3,3s3-1.3,3-3
	S10.7,6,9,6z"/>
</svg>
