<?xml version="1.0" encoding="utf-8"?>
<!-- Generator: Adobe Illustrator 22.1.0, SVG Export Plug-In . SVG Version: 6.00 Build 0)  -->
<svg version="1.1" id="Layer_1" xmlns="http://www.w3.org/2000/svg" xmlns:xlink="http://www.w3.org/1999/xlink" x="0px" y="0px"
	 width="18px" height="18px" viewBox="0 0 18 18" style="enable-background:new 0 0 18 18;" xml:space="preserve">
<style type="text/css">
	.st0{fill:#FFFFFF;}
	.st1{fill:none;stroke:#FFFFFF;stroke-width:2;stroke-linejoin:round;stroke-miterlimit:10;}
</style>
<g>
	<path class="st0" d="M15,7c0.6,0,1,0.5,1,1v7c0,0.6-0.5,1-1,1H3c-0.6,0-1-0.5-1-1V8c0-0.6,0.5-1,1-1H15 M15,5H3C1.3,5,0,6.3,0,8v7
		c0,1.7,1.3,3,3,3h12c1.7,0,3-1.3,3-3V8C18,6.3,16.7,5,15,5L15,5z"/>
</g>
<g>
	<line class="st1" x1="9" y1="6" x2="14.1" y2="1"/>
</g>
<g>
	<line class="st1" x1="9" y1="6" x2="4" y2="1"/>
</g>
</svg>
