<?xml version="1.0" encoding="utf-8"?>
<!-- Generator: Adobe Illustrator 22.1.0, SVG Export Plug-In . SVG Version: 6.00 Build 0)  -->
<svg version="1.1" id="Layer_1" xmlns="http://www.w3.org/2000/svg" xmlns:xlink="http://www.w3.org/1999/xlink" x="0px" y="0px"
	 width="20px" height="16px" viewBox="0 0 20 16" style="enable-background:new 0 0 20 16;" xml:space="preserve">
<path d="M19.6,2.2c-0.2-0.9-0.9-1.5-1.8-1.8C16.3,0,10,0,10,0S3.7,0,2.2,0.4C1.3,0.6,0.6,1.3,0.4,2.2C0,3.7,0,8,0,8s0,4.3,0.4,5.8
	c0.2,0.9,0.9,1.5,1.8,1.8C3.7,16,10,16,10,16s6.3,0,7.8-0.4c0.9-0.2,1.5-0.9,1.8-1.8C20,12.3,20,8,20,8S20,3.7,19.6,2.2z M8,11.5
	V4.5L14,8L8,11.5z"/>
</svg>
