<?xml version="1.0" encoding="utf-8"?>
<!-- Generator: Adobe Illustrator 22.1.0, SVG Export Plug-In . SVG Version: 6.00 Build 0)  -->
<svg version="1.1" id="Layer_1" xmlns="http://www.w3.org/2000/svg" xmlns:xlink="http://www.w3.org/1999/xlink" x="0px" y="0px"
	 width="19px" height="17px" viewBox="0 0 19 17" style="enable-background:new 0 0 19 17;" xml:space="preserve">
<style type="text/css">
	.st0{fill:#FFFFFF;}
</style>
<path class="st0" d="M17.5,3h-16C0.7,3,0,2.3,0,1.5v0C0,0.7,0.7,0,1.5,0l16,0C18.3,0,19,0.7,19,1.5v0C19,2.3,18.3,3,17.5,3z"/>
<path class="st0" d="M17.5,10h-16C0.7,10,0,9.3,0,8.5v0C0,7.7,0.7,7,1.5,7h16C18.3,7,19,7.7,19,8.5v0C19,9.3,18.3,10,17.5,10z"/>
<path class="st0" d="M17.5,17h-16C0.7,17,0,16.3,0,15.5v0C0,14.7,0.7,14,1.5,14h16c0.8,0,1.5,0.7,1.5,1.5v0C19,16.3,18.3,17,17.5,17
	z"/>
</svg>
