<svg version="1.1" class="icon--bitbucket" xmlns="http://www.w3.org/2000/svg" xmlns:xlink="http://www.w3.org/1999/xlink" x="0px" y="0px"
	 width="16px" height="20px" viewBox="0 0 16 20" style="enable-background:new 0 0 16 20;" xml:space="preserve">
	 <title>Bitbucket</title>
<g id="surface1">
	<path d="M8,0C4.1,0,0,0.6,0,3c0,1.5,0.6,5.9,0.8,7.9c0.1,0.7,0.5,1.3,1.2,1.6c0,0,2,1.5,6,1.5s6-1.5,6-1.5c0.6-0.3,1.1-0.9,1.2-1.6
		C15.4,8.9,16,4.5,16,3C16,0.6,11.9,0,8,0z M8,2c3.8,0,5.9,1.1,6.1,1.5C14,3.6,13.8,3.8,13.5,4C12.6,4.4,10.8,5,8,5
		C5.1,5,3.2,4.4,2.4,3.9C2.1,3.8,2,3.6,1.9,3.5C2.1,3.1,4.1,2,8,2z M8,7c1.7,0,3,1.3,3,3s-1.3,3-3,3s-3-1.3-3-3S6.3,7,8,7z M8,9
		c-0.6,0-1,0.4-1,1s0.4,1,1,1s1-0.4,1-1S8.6,9,8,9z M2.1,13.6L3,18c0,0,1,2,5,2s5-2,5-2l0.9-4.4C13.4,13.9,11.5,15,8,15
		S2.6,13.9,2.1,13.6z"/>
</g>
</svg>
