<svg version="1.1" class="icon--search" xmlns="http://www.w3.org/2000/svg" xmlns:xlink="http://www.w3.org/1999/xlink" x="0px" y="0px"
	 width="19.7px" height="19.7px" viewBox="0 0 19.7 19.7" style="enable-background:new 0 0 19.7 19.7;" xml:space="preserve">
	 <style>.icon--search { fill: white; }</style>
<path d="M19.7,17.5l-5.1-5.1c2.1-3.1,1.8-7.4-1-10.2C12.1,0.8,10,0,8,0S3.9,0.8,2.3,2.3c-3.1,3.1-3.1,8.2,0,11.3C3.9,15.2,6,16,8,16
	c1.6,0,3.1-0.5,4.5-1.4l5.1,5.1L19.7,17.5z M4.5,11.5c-1.9-1.9-1.9-5.1,0-7.1C5.4,3.5,6.7,3,8,3s2.6,0.5,3.5,1.5
	c1.9,1.9,1.9,5.1,0,7.1C10.6,12.5,9.3,13,8,13C6.7,13,5.4,12.5,4.5,11.5z"/>
</svg>
