<?xml version="1.0" encoding="utf-8"?>
<!-- Generator: Adobe Illustrator 22.1.0, SVG Export Plug-In . SVG Version: 6.00 Build 0)  -->
<svg version="1.1" id="Layer_1" xmlns="http://www.w3.org/2000/svg" xmlns:xlink="http://www.w3.org/1999/xlink" x="0px" y="0px"
	 width="18px" height="18px" viewBox="0 0 18 18" style="enable-background:new 0 0 18 18;" xml:space="preserve">
<path d="M16,0H2C0.9,0,0,0.9,0,2v14c0,1.1,0.9,2,2,2h14c1.1,0,2-0.9,2-2V2C18,0.9,17.1,0,16,0z M6,14H3.5V7H6V14z M4.7,5.7
	c-0.8,0-1.3-0.5-1.3-1.2s0.5-1.2,1.4-1.2c0.8,0,1.3,0.5,1.3,1.2S5.6,5.7,4.7,5.7z M15,14h-2.4v-3.8c0-1.1-0.7-1.3-0.9-1.3
	s-1.1,0.2-1.1,1.3c0,0.2,0,3.8,0,3.8H8.1V7h2.5v1c0.3-0.6,1-1,2.2-1S15,8,15,10.2V14z"/>
</svg>
