<svg version="1.1" xmlns="http://www.w3.org/2000/svg" xmlns:xlink="http://www.w3.org/1999/xlink" x="0px" y="0px"
	 width="241px" height="185px" viewBox="0 0 241 185" style="enable-background:new 0 0 241 185;" xml:space="preserve">
<path d="M121.2,76.1c2.4,0,4.4-2.1,4.4-4.4s-2.1-4.4-4.4-4.4c-2.4,0-4.4,2.1-4.4,4.4C116.8,74.4,118.9,76.1,121.2,76.1z M108.8,35.7
	h54.6c1.8,0,2.9-1.5,2.9-3c0-1.5-1.5-3-2.9-3h-54.6c-1.8,0-2.9,1.5-2.9,3C105.9,34.2,107.1,35.7,108.8,35.7z M89.4,22.7
	c-1.2-1.2-3.2-1.2-4.4,0L70.5,37.2l-4.4-4.7c-1.2-1.2-3.2-1.2-4.4,0s-1.2,3.2,0,4.4l6.8,6.8c0.6,0.6,1.5,0.9,2.1,0.9
	c0.6,0,1.5-0.3,2.1-0.9l16.5-16.5C90.5,25.7,90.5,23.9,89.4,22.7z M238.3,57.2h-50.4V3c0-1.8-1.5-3-2.9-3H42.8c-1.8,0-2.9,1.5-2.9,3
	v90.3H2.9c-1.8,0-2.9,1.5-2.9,3V182c0,1.8,1.5,3,2.9,3h105l0,0l0,0H238c1.8,0,2.9-1.5,2.9-3V60.2C241.2,58.7,240.1,57.2,238.3,57.2z
	 M45.7,5.9h136v51.3H78.2c-1.8,0-2.9,1.5-2.9,3v32.8H46v-87H45.7z M105,179.1H6.2v-4.7l21.2-21.2l10.9,10.9c1.2,1.2,3.2,1.2,4.4,0
	l34.5-34.5l27.7,27.7L105,179.1L105,179.1z M105,148.4l-25.7-25.7c-1.2-1.2-3.2-1.2-4.4,0l-34.5,34.5l-10.9-10.9
	c-1.2-1.2-3.2-1.2-4.4,0L5.9,165.5V99.1H105L105,148.4L105,148.4z M235.4,179.1H111.2V96.2c0-1.8-1.5-3-2.9-3H81.4v-5.9h154.2v91.8
	H235.4z M235.4,81.4H81.1v-18h154.2L235.4,81.4L235.4,81.4z M35.1,137.2c7.4,0,13.6-6.2,13.6-13.6c0-7.4-6.2-13.6-13.6-13.6
	s-13.6,6.2-13.6,13.6C21.5,131,27.4,137.2,35.1,137.2z M35.1,116.3c4.1,0,7.4,3.2,7.4,7.4c0,4.1-3.2,7.4-7.4,7.4s-7.4-3.2-7.4-7.4
	C27.4,119.5,31,116.3,35.1,116.3z M146.3,153.7c0.6,0.3,0.9,0.3,1.5,0.3c0.6,0,1.2,0,1.5-0.3l27.4-16.2c0.9-0.6,1.5-1.5,1.5-2.7
	c0-1.2-0.6-2.1-1.5-2.7L149.2,116c-0.9-0.6-2.1-0.6-2.9,0c-0.9,0.6-1.5,1.5-1.5,2.7v32.8C144.8,152,145.4,153.1,146.3,153.7z
	 M150.7,123.6l18.3,10.9l-18.3,11.2V123.6z M106.2,76.1c2.4,0,4.4-2.1,4.4-4.4s-2.1-4.4-4.4-4.4c-2.4,0-4.4,2.1-4.4,4.4
	C101.7,74.4,103.5,76.1,106.2,76.1z M90.8,76.1c2.4,0,4.4-2.1,4.4-4.4s-2.1-4.4-4.4-4.4c-2.4,0-4.4,2.1-4.4,4.4
	C86.4,74.4,88.5,76.1,90.8,76.1z"/>
</svg>
