<?xml version="1.0" encoding="utf-8"?>
<!-- Generator: Adobe Illustrator 22.1.0, SVG Export Plug-In . SVG Version: 6.00 Build 0)  -->
<svg version="1.1" id="play-field" xmlns="http://www.w3.org/2000/svg" xmlns:xlink="http://www.w3.org/1999/xlink" x="0px" y="0px"
	 width="778px" height="350.8px" viewBox="0 0 778 350.8" style="enable-background:new 0 0 778 350.8;" xml:space="preserve">
<style type="text/css">
	.st0{opacity:0.4;}
	.st1{opacity:0.5229;}
	.st2{fill:#FFCD33;}
	.st3{opacity:0.5485;}
	.st4{opacity:0.5562;}
	.st5{opacity:0.5247;}
	.st6{opacity:0.4246;}
	.st7{opacity:0.7983;}
	.st8{opacity:0.2755;}
	.st9{opacity:0.2293;}
	.st10{opacity:0.2837;}
	.st11{opacity:0.1979;}
	.st12{fill:url(#SVGID_1_);}
	.st13{opacity:0.2;fill:#FFFFFF;}
</style>
<g class="st0">
	<g>
		<g>
			<g>
				<g class="st1">
					<g>
						<g>
							<path class="st2" d="M769.5,214.8l-69.8-40.3c-11.3-6.5-25.4,1.6-25.4,14.7v80.6c0,13,14.1,21.2,25.4,14.7l69.8-40.3
								C780.8,237.6,780.8,221.3,769.5,214.8"/>
						</g>
					</g>
				</g>
				<g class="st3">
					<g>
						<g>
							<path class="st2" d="M683.6,50.3L613.6,9.9c-11.3-6.5-25.5,1.6-25.5,14.7v80.7c0,13.1,14.1,21.2,25.5,14.7l69.9-40.4
								C694.9,73.1,694.9,56.8,683.6,50.3"/>
						</g>
					</g>
				</g>
				<g class="st4">
					<g>
						<g>
							<path class="st2" d="M524.6,115.2l-48.4-28c-7.8-4.5-17.6,1.1-17.6,10.2v55.9c0,9.1,9.8,14.7,17.6,10.2l48.4-28
								C532.5,131.1,532.5,119.7,524.6,115.2"/>
						</g>
					</g>
				</g>
				<g class="st5">
					<g>
						<g>
							<path class="st2" d="M554.2,281.2l-67.6-39c-10.9-6.3-24.6,1.6-24.6,14.2v78c0,12.6,13.7,20.5,24.6,14.2l67.6-39
								C565.1,303.3,565.1,287.5,554.2,281.2"/>
						</g>
					</g>
				</g>
				<g class="st6">
					<g>
						<g>
							<path class="st2" d="M410.1,149.4l-45.6-26.3c-7.4-4.3-16.6,1.1-16.6,9.6v52.6c0,8.5,9.2,13.8,16.6,9.6l45.6-26.3
								C417.5,164.3,417.5,153.6,410.1,149.4"/>
						</g>
					</g>
				</g>
				<g class="st7">
					<g>
						<g>
							<path class="st2" d="M357.9,39.3L293.5,2.1C283-3.9,270,3.6,270,15.7v74.4c0,12,13,19.6,23.5,13.5l64.5-37.2
								C368.3,60.4,368.3,45.4,357.9,39.3"/>
						</g>
					</g>
				</g>
				<g class="st8">
					<g>
						<g>
							<path class="st2" d="M247.5,137.8l-49.2-28.4c-8-4.6-17.9,1.1-17.9,10.3v56.8c0,9.2,9.9,14.9,17.9,10.3l49.2-28.4
								C255.4,153.9,255.4,142.4,247.5,137.8"/>
						</g>
					</g>
				</g>
				<g class="st9">
					<g>
						<g>
							<path class="st2" d="M290.5,200l-50.8-29.3c-8.2-4.7-18.5,1.2-18.5,10.7V240c0,9.5,10.3,15.4,18.5,10.7l50.8-29.3
								C298.7,216.6,298.7,204.8,290.5,200"/>
						</g>
					</g>
				</g>
				<g class="st10">
					<g>
						<g>
							<path class="st2" d="M179.7,92.1l-57.9-33.4c-9.4-5.4-21.1,1.4-21.1,12.2v66.9c0,10.8,11.7,17.6,21.1,12.2l57.9-33.4
								C189,111,189,97.5,179.7,92.1"/>
						</g>
					</g>
				</g>
				<g class="st11">
					<g>
						<g>
							<path class="st2" d="M82.4,85.4L22,50.5c-9.8-5.6-22,1.4-22,12.7v69.7c0,11.3,12.2,18.3,22,12.7l60.4-34.9
								C92.2,105.1,92.2,91,82.4,85.4"/>
						</g>
					</g>
				</g>
				<g class="st0">
					<g>
						<g>
							<path class="st2" d="M116,222.6L63.1,192c-8.6-4.9-19.3,1.2-19.3,11.1v61.1c0,9.9,10.7,16.1,19.3,11.1l52.9-30.6
								C124.6,239.9,124.6,227.5,116,222.6"/>
						</g>
					</g>
				</g>
			</g>
			<linearGradient id="SVGID_1_" gradientUnits="userSpaceOnUse" x1="499.468" y1="145.1055" x2="618.7082" y2="145.1055">
				<stop  offset="0" style="stop-color:#FFA629"/>
				<stop  offset="1" style="stop-color:#FFC617"/>
			</linearGradient>
			<path class="st12" d="M499.5,98.8v92.7c0,15,16.2,24.4,29.2,16.9L609,162c13-7.5,13-26.2,0-33.7l-80.3-46.3
				c-3.1-1.8-6.5-2.6-9.7-2.6C508.8,79.2,499.5,87.4,499.5,98.8"/>
			<path class="st13" d="M609,128.2l-80.3-46.3c-3.1-1.8-6.5-2.6-9.7-2.6c-10.2,0-19.5,8.1-19.5,19.5v34c9-1.5,18.2-1.9,25.7,0.1
				c17,4.5,36.3,22.4,64.7,40.1l19.1-11C622,154.5,622,135.7,609,128.2z"/>
		</g>
	</g>
</g>
</svg>
