<?xml version="1.0" encoding="utf-8"?>
<!-- Generator: Adobe Illustrator 22.1.0, SVG Export Plug-In . SVG Version: 6.00 Build 0)  -->
<svg version="1.1" xmlns="http://www.w3.org/2000/svg" xmlns:xlink="http://www.w3.org/1999/xlink" x="0px" y="0px"
	 width="1114.7px" height="695.9px" viewBox="0 0 1114.7 695.9" style="enable-background:new 0 0 1114.7 695.9;"
	 xml:space="preserve">
<style type="text/css">
	.st0{opacity:0;fill:none;stroke:#FFFFFF;stroke-miterlimit:10;}
	.st1{opacity:5.000000e-03;fill:none;stroke:#FFFFFF;stroke-width:1.8;stroke-miterlimit:10;}
	.st2{opacity:1.000000e-02;fill:none;stroke:#FFFFFF;stroke-width:2.6;stroke-miterlimit:10;}
	.st3{opacity:1.500000e-02;fill:none;stroke:#FFFFFF;stroke-width:3.4;stroke-miterlimit:10;}
	.st4{opacity:2.000000e-02;fill:none;stroke:#FFFFFF;stroke-width:4.2;stroke-miterlimit:10;}
	.st5{opacity:2.500000e-02;fill:none;stroke:#FFFFFF;stroke-width:5;stroke-miterlimit:10;}
	.st6{opacity:3.000000e-02;fill:none;stroke:#FFFFFF;stroke-width:5.8;stroke-miterlimit:10;}
	.st7{opacity:3.500000e-02;fill:none;stroke:#FFFFFF;stroke-width:6.6;stroke-miterlimit:10;}
	.st8{opacity:4.000000e-02;fill:none;stroke:#FFFFFF;stroke-width:7.4;stroke-miterlimit:10;}
	.st9{opacity:4.500000e-02;fill:none;stroke:#FFFFFF;stroke-width:8.2;stroke-miterlimit:10;}
	.st10{opacity:5.000000e-02;fill:none;stroke:#FFFFFF;stroke-width:9;stroke-miterlimit:10;}
	.st11{opacity:4.285714e-02;fill:none;stroke:#FFFFFF;stroke-width:7.8571;stroke-miterlimit:10;}
	.st12{opacity:3.571429e-02;fill:none;stroke:#FFFFFF;stroke-width:6.7143;stroke-miterlimit:10;}
	.st13{opacity:2.857143e-02;fill:none;stroke:#FFFFFF;stroke-width:5.5714;stroke-miterlimit:10;}
	.st14{opacity:2.142857e-02;fill:none;stroke:#FFFFFF;stroke-width:4.4286;stroke-miterlimit:10;}
	.st15{opacity:1.428571e-02;fill:none;stroke:#FFFFFF;stroke-width:3.2857;stroke-miterlimit:10;}
	.st16{opacity:7.142858e-03;fill:none;stroke:#FFFFFF;stroke-width:2.1429;stroke-miterlimit:10;}
</style>
<g id="Layer_1">
</g>
<g id="::_Schedule">
	<g>
		<path class="st0" d="M2,256.7C162,179.6,288-16.6,637,47.4s475-47.1,475-47.1"/>
		<path class="st1" d="M2,274.3C162,197.2,287.8,17.7,636.8,81.8S1112,36.4,1112,36.4"/>
		<path class="st2" d="M2,291.9C162,214.8,287.6,52,636.6,116.1S1112,72.5,1112,72.5"/>
		<path class="st3" d="M2,309.6c160-77.1,285.4-223.2,634.4-159.1s475.6-42,475.6-42"/>
		<path class="st4" d="M2,327.2c160-77.1,285.2-206.5,634.2-142.4s475.8-40.3,475.8-40.3"/>
		<path class="st5" d="M2,344.8c160-77.1,285-189.7,634-125.7s476-38.5,476-38.5"/>
		<path class="st6" d="M2,362.4c160-77.1,284.8-173,633.8-108.9s476.2-36.8,476.2-36.8"/>
		<path class="st7" d="M2,380.1c160-77.1,284.6-156.3,633.6-92.2s476.4-35.1,476.4-35.1"/>
		<path class="st8" d="M2,397.7c160-77.1,284.4-139.6,633.4-75.5s476.6-33.4,476.6-33.4"/>
		<path class="st9" d="M2,415.3c160-77.1,284.2-122.9,633.2-58.8s476.8-31.7,476.8-31.7"/>
		<path class="st10" d="M2,432.9c160-77.1,284-106.1,633-42.1s477-30,477-30"/>
		<path class="st11" d="M2,442.8c166.3-66.5,281.6-84.4,633.3-11.9c347.2,71,476.7-55.1,476.7-55.1"/>
		<path class="st12" d="M2,452.7C174.5,396.7,281.1,390,635.5,471c345.4,78,476.4-80.1,476.4-80.1"/>
		<path class="st13" d="M2,462.5c178.9-45.3,276.7-40.9,633.9,48.5C979.5,595.9,1112,405.9,1112,405.9"/>
		<path class="st14" d="M2,472.4c185.1-34.8,274.3-19.2,634.1,78.7C978,642.9,1112,420.9,1112,420.9"/>
		<path class="st15" d="M2,482.3c191.4-24.2,271.9,2.6,634.4,108.9C976.5,689.9,1112,435.9,1112,435.9"/>
		<path class="st16" d="M2,492.1c197.7-13.6,269.4,24.3,634.7,139C975,736.9,1112,450.9,1112,450.9"/>
		<path class="st0" d="M2,502c204-3,267,46.1,635,169.2C973.5,783.8,1112,466,1112,466"/>
	</g>
</g>
</svg>
