<?xml version="1.0" encoding="utf-8"?>
<!-- Generator: Adobe Illustrator 22.1.0, SVG Export Plug-In . SVG Version: 6.00 Build 0)  -->
<svg version="1.1" id="Layer_2" xmlns="http://www.w3.org/2000/svg" xmlns:xlink="http://www.w3.org/1999/xlink" x="0px" y="0px"
	 width="930px" height="940px" viewBox="0 0 930 940" style="enable-background:new 0 0 930 940;" xml:space="preserve">
<style type="text/css">
	.st0{ fill:#FFFFFF; opacity: 0.05; }
</style>
<path class="st0" d="M758.2,741.6c-113-2.8-241-6-359.9-76.3C241.2,572.3,113.2,462,0,360.4v13.4
	c111.4,104.9,237.7,216.5,394.5,302.4c115.1,62.9,237.9,65.6,346.3,68c51.1,1.1,99.4,2.2,144,9.1c16.2,2.5,31.2,5.7,45.2,9.6v-5.8
	C879.9,744.7,821.8,743.2,758.2,741.6z"/>
<path class="st0" d="M844.2,680.8c-61.9-1.8-132-3.7-201.4-18.2c-80.1-16.7-146.2-47.4-202.1-93.8C272.8,429.2,133.5,329.5,0,239.1
	v11.7c131.8,95,270.9,200,437.7,330.2c122.2,95.2,264.4,99.4,389.9,103c36.6,1.1,71.1,2.1,102.5,5.4v-4.8
	C903.5,682.5,874.6,681.7,844.2,680.8z"/>
<path class="st0" d="M775.7,729.4c-116.5-3.2-248.5-6.7-368.9-83.4C247.4,544.3,116.1,433.8,0,334.5v13
	c114.4,102.9,243.9,215.2,403.1,309.6c116.7,69,243.5,72.2,355.3,75c49.6,1.2,96.4,2.4,139.2,9c11.4,1.8,22.2,3.9,32.4,6.3v-5.6
	C884.7,732.4,832.5,731,775.7,729.4z"/>
<path class="st0" d="M740.6,753.8c-109.5-2.4-233.6-5.1-350.7-69.2C235.1,599.9,110.2,490.5,0,387v13.7
	c108.4,106.4,231.5,216.7,385.8,294.5c113.3,57,232.2,59.2,337.2,61.1c74,1.4,145.1,2.7,207,22.7v-6.1
	C875,756.8,811.1,755.4,740.6,753.8z"/>
<path class="st0" d="M827.3,693c-60.5-1.8-129.2-3.8-196.9-17.4c-77.9-15.6-142.7-44.3-198.2-87.5C267.7,459.6,130.2,355.8,0,261.8
	v12c34,26,68.5,52.7,104,80.1c100,77.2,203.4,157.1,325,246.1c121,88.4,259.3,92.4,381.4,96c43.1,1.3,83.4,2.4,119.5,7.3v-4.9
	C898.7,695.1,864.1,694,827.3,693z"/>
<path class="st0" d="M810.2,705.1C751,703.4,684,701.4,618,688.8c-75.7-14.6-139.3-41.2-194.3-81.4
	C302,518.3,198.5,438.4,98.5,361.1C64.9,335.2,32.2,309.9,0,285.3v12.4c7.2,5.8,14.4,11.7,21.7,17.6
	c114.6,92.9,244.4,198.3,398.8,303.9c119.7,81.7,254.2,85.6,372.9,89c49.7,1.4,95.9,2.7,136.7,9.5v-5.1
	C894.1,707.6,853.6,706.4,810.2,705.1z"/>
<path class="st0" d="M793,717.3c-119.9-3.4-255.9-7.3-377.8-90.6C260.6,520.9,130.6,415.4,15.9,322.4c-5.3-4.3-10.6-8.6-15.9-12.9
	v12.7C117.3,422.6,250.1,535,411.8,638.1c118.3,75.3,248.9,78.8,364.2,81.9c56.4,1.5,108.4,2.9,154,12.2v-5.3
	C889.4,720,843.1,718.7,793,717.3z"/>
<path class="st0" d="M722.8,766.1c-106-1.9-226.1-4.1-341.4-62.2C229.1,627.2,107.2,519.2,0,414.4v14
	c105.4,107.4,225.5,215.8,377.2,285.9C488.5,765.5,598.6,767,705,768.5c80.5,1.1,157.6,2.2,225,27v-6.1
	C868.7,768.8,797.3,767.5,722.8,766.1z"/>
<path class="st0" d="M613.3,842c-89.2,2.1-181.4,4.2-282.3-22.2C197,784.6,90,694.4,0,593.2v15.2c88,101.8,193,190.3,325,220
	c96.6,21.7,184.5,18.8,269.4,15.9c63.6-2.1,123.7-4.2,182.9,4.5c57.4,8.4,106.6,25.8,152.8,54.3v-6.4
	C830.6,837,724.8,839.4,613.3,842z"/>
<path class="st0" d="M594.7,855.3c-85.6,2.9-174.1,5.9-272.1-16.2C191.8,809.7,87.5,724.2,0,625v15.4
	c85.6,99.3,187.7,182.9,316.2,207.1c93.7,17.6,177.9,13.8,259.3,10.2c65.2-2.9,126.7-5.7,187.7,3c62.3,8.9,115.7,28.6,166.7,61.6
	V916C823.1,847.6,716.8,851.1,594.7,855.3z"/>
<path class="st0" d="M576.1,868.7c-82,3.7-166.9,7.5-261.9-10.3c-98.9-18.6-191-73-281.6-166.1C21.5,680.8,10.6,669,0,657v16.3
	c17,19.6,34.7,38.5,53.2,56.3c20.3,19.5,41.6,37.8,64.1,54.3c22.5,16.6,46.1,31.4,70.9,43.9c24.8,12.5,50.8,22.7,77.8,30
	c6.8,1.6,13.6,3.4,20.4,4.9l20.8,3.8l21.1,2.9c7.1,0.9,14.2,1.5,21.3,2.3c28.4,2.7,57.2,3.9,86.1,3.9c28.9,0,58.1-1.1,87.3-2.7
	c29.2-1.6,58.5-3.6,87.8-4.9c29.3-1.3,58.6-2.1,87.7-0.8c29.1,1.3,57.9,4.5,86,10.6c1.8,0.4,3.5,0.7,5.3,1.1l5.2,1.3l10.4,2.6
	l2.6,0.7l2.6,0.8l5.1,1.5l10.3,3.1c6.7,2.4,13.4,4.7,20.1,7.2l9.9,4.1l4.9,2c1.6,0.7,3.3,1.3,4.9,2.1c22.4,10,43.7,22.1,64.1,35.7
	v-4.5C814.5,857.9,703.7,862.9,576.1,868.7z"/>
<path class="st0" d="M631.8,829c-92.8,1.3-188.8,2.6-292.5-28.5c-93.4-28.1-182-82.9-270.8-167.5c-23.8-22.7-46.7-46.6-68.6-71v15
	c90.5,103.7,198.4,197,333.7,232.5c99.5,26.1,190.9,23.9,279.4,21.9c111.2-2.6,216.7-5,317,53v-6.4
	C838.1,826.2,737.6,827.6,631.8,829z"/>
<path class="st0" d="M686.8,790.9c-103.8-0.9-211.2-1.8-322.3-48.3c-87.8-36.9-172.6-92.2-259.3-169C67.9,540.5,33.2,506.2,0,471.5
	V486c99.4,108,213.8,210.9,359.8,266.3c107,40.5,209.6,40.7,308.9,40.9c93.2,0.2,182.1,0.4,261.4,36.6v-6.3
	C857.6,792.4,774.2,791.7,686.8,790.9z"/>
<path class="st0" d="M704.9,778.5c-52.6-0.7-106.9-1.5-162.6-8.5c-63.3-8-118.7-23.3-169.3-46.7c-149.7-69.1-268.7-175-373-280.7
	v14.2c102.4,108,219.6,213.9,368.5,276.4c109.3,45.8,215.6,46.7,318.4,47.6c86.9,0.7,169.9,1.4,243.1,31.6v-6.2
	C863.3,780.7,785.8,779.6,704.9,778.5z"/>
<path class="st0" d="M668.6,803.5c-100.1-0.2-203.7-0.4-312.5-41.6c-89.7-34-175.8-89.2-263.3-168.6C60.4,563.8,29.4,532.5,0,501
	v14.6c95.6,105.9,209.4,207.7,351.1,255.8c104.7,35.5,203.5,34.9,299.1,34.4c99.3-0.5,193.9-1,279.8,41.8v-6.4
	C851.5,803.8,762.2,803.7,668.6,803.5z"/>
<path class="st0" d="M650.3,816.2c-96.5,0.5-196.2,1.1-302.5-35c-91.6-31.1-179-86.1-267.1-168.1c-28.2-26.2-55-53.8-80.7-82v14.8
	C93.1,651,203.9,748.7,342.4,790.4c102.1,30.6,197.3,29.3,289.3,28.1C737,817,837.2,815.6,930,865.8v-6.5
	C845,815.1,750.1,815.6,650.3,816.2z"/>
<path class="st0" d="M47.7,91.5C205.8,150,355.1,205.2,514.9,409.7c115,147,285.6,163.1,415.1,164.6v-4.9
	c-53.6-0.8-113.3-4.9-173.9-20c-46.8-11.7-89.5-29.2-126.7-51.9c-43.2-26.4-80.9-60.8-111.9-102.4C362.3,186.8,214,136.9,57,84.1
	C38.3,77.8,19.3,71.4,0,64.7v9.1C16.1,79.8,32.1,85.7,47.7,91.5z"/>
<path class="st0" d="M59.4,77.1c158.1,53.2,307.5,103.4,464,313.6c110.4,148,280.1,169.1,406.6,171.3v-5.1
	c-128.9-2.9-295.3-28.3-404-181C374.1,161.9,225.7,116.9,68.7,69.3C46.2,62.5,23.2,55.5,0,47.9v8.9C20.1,63.8,39.9,70.5,59.4,77.1z"
	/>
<path class="st0" d="M35.7,105.6c158.1,63.9,307.4,124.2,470.6,323.1c119.1,144.9,295.4,156.6,423.7,158v-4.8
	c-57-0.7-121.7-4.2-186.9-20.3c-45.7-11.3-87.3-28.1-123.8-49.8c-42.3-25.1-79.4-57.9-110.3-97.4C350.4,211.6,202.1,156.7,45.1,98.6
	C30.3,93.2,15.2,87.6,0,81.8v9.3C12,96.1,24,100.9,35.7,105.6z"/>
<path class="st0" d="M70.8,62.3c158.3,48,307.8,93.4,461.2,309.3c106.7,149.9,270.7,175.1,398.1,178v-5.3
	c-46-1.4-96.5-6.2-147.3-18.9c-49.3-12.3-94-31.2-132.8-55.9c-45.3-28.9-84.1-66.9-115.3-112.9C385.7,137.1,237.3,96.8,80.1,54.2
	C54,47.1,27.2,39.8,0,31.6v8.7C23.9,48.1,47.7,55.3,70.8,62.3z"/>
<path class="st0" d="M23.2,119.2c79.8,35,155.1,68.1,233.3,117.5c88.5,55.9,165.2,123,241.3,211.1C621.6,591,797.2,597.6,930,599.1
	v-4.7c-60-0.6-130-3.4-199.7-20.6c-96.7-23.8-171.9-69.6-229.9-140.2c-162-197.4-310.4-257.4-467.6-320.9C22,108.4,11,104,0,99.5
	v9.5C7.8,112.4,15.5,115.8,23.2,119.2z"/>
<path class="st0" d="M927.6,619.5c-132.7-1.9-314.4-4.6-444.3-147.3c-169.9-187-319-257.9-476.9-332.9c-2.1-1-4.3-2-6.4-3v10.1
	c75,38.4,152.5,78.3,230.7,129.8c89.4,58.8,171.1,127.4,250,209.7C607.4,618,783,621.3,911.2,623.7c6.4,0.1,12.7,0.2,18.8,0.4v-4.5
	C929.2,619.6,928.4,619.5,927.6,619.5z"/>
<path class="st0" d="M894.5,644.2c-65.5-1.4-139.8-3.1-214.4-20.2c-86.8-19.9-156.8-56.9-213.8-113.2C295.4,342,150.8,258.5,0,175.5
	v10.7c142.9,84.5,291.9,177.4,463.5,337.8c125.2,116.8,285.6,120.8,414.5,124c18,0.4,35.4,0.9,52,1.6v-4.5
	C918.5,644.7,906.6,644.4,894.5,644.2z"/>
<path class="st0" d="M877.8,656.4c-64.3-1.6-137.3-3.4-210.2-19.6c-84.5-18.8-153.2-53.7-209.9-106.6C288.5,371.9,141.2,279.6,0,196
	v11c138.8,87.9,284.7,185.8,454.9,336c124.3,109.4,280.7,113.6,406.4,117c24,0.6,47.1,1.3,68.7,2.6v-4.6
	C913.4,657.3,895.9,656.9,877.8,656.4z"/>
<path class="st0" d="M82,47.3c80.7,21.9,157,42.6,232.8,85.8c85.3,48.6,157,118.3,225.6,219.4C643.7,504.4,802.4,533.5,930,537.2
	v-5.7c-42.1-1.7-87.9-6.6-133.5-18c-50.7-12.6-96.5-32.1-136.1-57.9c-46.4-30.2-85.9-70-117.2-118.4
	C397.2,112.2,248.7,76.5,91.4,38.8C61.7,31.7,31.1,24.3,0,15.6v8.5C27.8,32.6,55.3,40,82,47.3z"/>
<path class="st0" d="M911,631.9c-66.6-1.2-142.1-2.7-218.6-20.5c-89.2-20.9-160.4-60.1-217.7-119.8C303.2,312.4,155.5,235.2,0,155.6
	V166c70.3,38.7,142.6,79.3,216.2,128.7c90.8,61.1,174.5,129.8,255.9,210.2c126,124.4,290.5,128,422.6,130.9
	c12.2,0.3,24,0.5,35.4,0.9v-4.5C923.8,632.1,917.5,632,911,631.9z"/>
<path class="st0" d="M861.1,668.6c-127.1-3.4-285.3-7.7-411.9-119.2C281.3,401.4,137.1,304.2,0,217.2v11.3
	c135.2,91.3,276,192,446.3,333.5C569.5,664.2,722,668.6,844.5,672c30.2,0.9,59,1.7,85.5,3.9v-4.6
	C908.4,669.9,885.2,669.3,861.1,668.6z"/>
<path class="st0" d="M93.1,32c81,19.4,157.5,37.8,233,79.9c84.8,47.3,155.6,117.7,223,221.5C648,485.9,804.5,519.4,930,524.5v-5.9
	c-37.9-2-78.4-6.8-119.3-16.9c-52.2-12.8-99.1-32.9-139.7-59.7c-47.7-31.5-87.8-73.3-119.3-124.1C408.7,87.3,266.9,57.6,102.6,23.3
	C69.4,16.3,35,9.1,0,0v8.4C31.6,17.3,62.8,24.8,93.1,32z"/>
<path class="st0" d="M717.6,586.3c-94.1-22.8-167.9-66.4-225.7-133.3C326,260.9,177.4,195.6,20,126.4c-6.6-2.9-13.3-5.8-20-8.8v9.8
	c3.3,1.6,6.6,3.1,9.8,4.7C89.6,170,165,205.8,243.9,256.7c89.5,57.7,167.4,124.4,245.3,210.1C616.7,607,796.5,609.6,927.7,611.5
	c0.8,0,1.5,0,2.3,0V607C867.4,606.3,792,604.3,717.6,586.3z"/>
</svg>
